<svg width="28" height="28" viewBox="0 0 28 28" fill="none" xmlns="http://www.w3.org/2000/svg">
<g clip-path="url(#clip0_157_244)">
<path d="M27.6187 13.0793L19.2864 4.74701C18.778 4.23863 17.9535 4.23863 17.4451 4.74701C16.9366 5.25549 16.9366 6.07976 17.4451 6.58824L23.5549 12.698H1.30193C0.582951 12.698 0 13.281 0 14C0 14.7188 0.582951 15.3019 1.30193 15.3019H23.5549L17.4453 21.4117C16.9368 21.9202 16.9368 22.7444 17.4453 23.2529C17.6995 23.507 18.0327 23.6342 18.3659 23.6342C18.6991 23.6342 19.0323 23.507 19.2866 23.2529L27.6187 14.9206C28.1272 14.4121 28.1272 13.5878 27.6187 13.0793Z" fill="black"/>
</g>
<defs>
<clipPath id="clip0_157_244">
<rect width="28" height="28" fill="white"/>
</clipPath>
</defs>
</svg>
