<svg width="28" height="20" viewBox="0 0 28 20" fill="none" xmlns="http://www.w3.org/2000/svg">
<path d="M27.6187 9.07941L19.2864 0.747066C18.778 0.238689 17.9535 0.238689 17.4451 0.747066C16.9366 1.25555 16.9366 2.07982 17.4451 2.58831L23.5549 8.6981H1.30193C0.582951 8.6981 0 9.28105 0 10C0 10.7189 0.582951 11.302 1.30193 11.302H23.5549L17.4453 17.4118C16.9368 17.9202 16.9368 18.7445 17.4453 19.253C17.6995 19.507 18.0327 19.6343 18.3659 19.6343C18.6991 19.6343 19.0323 19.507 19.2866 19.253L27.6187 10.9206C28.1272 10.4122 28.1272 9.58789 27.6187 9.07941Z" fill="#DEDEDE"/>
</svg>
