<svg width="28" height="28" viewBox="0 0 28 28" fill="none" xmlns="http://www.w3.org/2000/svg">
<g clip-path="url(#clip0_157_190)">
<path d="M0.38131 14.9206L8.71365 23.253C9.22203 23.7613 10.0465 23.7613 10.5549 23.253C11.0634 22.7445 11.0634 21.9202 10.5549 21.4117L4.4451 15.3019L26.6981 15.3019C27.417 15.3019 28 14.719 28 14C28 13.2811 27.417 12.6981 26.6981 12.6981L4.4451 12.6981L10.5547 6.58828C11.0632 6.0798 11.0632 5.25552 10.5547 4.74704C10.3005 4.49301 9.96725 4.36573 9.63406 4.36573C9.30087 4.36573 8.96768 4.49301 8.71344 4.74704L0.38131 13.0794C-0.127171 13.5879 -0.127171 14.4121 0.38131 14.9206Z" fill="black"/>
</g>
<defs>
<clipPath id="clip0_157_190">
<rect width="28" height="28" fill="white" transform="matrix(-1 0 0 -1 28 28)"/>
</clipPath>
</defs>
</svg>
