<svg width="185" height="51" viewBox="0 0 185 51" fill="none" xmlns="http://www.w3.org/2000/svg">
<path d="M21.0918 13.777V10.5353C21.0918 10.3118 21.2042 10.2 21.4291 10.2H33.5727C33.7975 10.2 33.91 10.3118 33.91 10.5353V13.777C33.91 14.0005 33.7975 14.1123 33.5727 14.1123C33.3478 14.1123 33.2353 14.0005 33.2353 13.777V11.206C33.2353 10.9825 33.1229 10.8707 32.898 10.8707H28.1755C27.9506 10.8707 27.8382 10.9825 27.8382 11.206V24.8433C27.8382 25.0669 27.9506 25.1786 28.1755 25.1786H29.7497C29.9746 25.1786 30.087 25.2904 30.087 25.514C30.087 25.7375 29.9746 25.8493 29.7497 25.8493H25.2521C25.0272 25.8493 24.9147 25.7375 24.9147 25.514C24.9147 25.2904 25.0272 25.1786 25.2521 25.1786H26.8262C27.0511 25.1786 27.1635 25.0669 27.1635 24.8433V11.206C27.1635 10.9825 27.0511 10.8707 26.8262 10.8707H22.1037C21.8788 10.8707 21.7664 10.9825 21.7664 11.206V13.777C21.7664 14.0005 21.654 14.1123 21.4291 14.1123C21.2042 14.1123 21.0918 14.0005 21.0918 13.777Z" fill="white"/>
<path d="M35.7802 25.8493C35.5553 25.8493 35.4429 25.7375 35.4429 25.514C35.4429 25.2904 35.5553 25.1786 35.7802 25.1786H37.3544C37.5792 25.1786 37.6917 25.0669 37.6917 24.8433V11.206C37.6917 10.9825 37.5792 10.8707 37.3544 10.8707H35.7802C35.5553 10.8707 35.4429 10.7589 35.4429 10.5353C35.4429 10.3118 35.5553 10.2 35.7802 10.2H40.2778C40.5027 10.2 40.6151 10.3118 40.6151 10.5353C40.6151 10.7589 40.5027 10.8707 40.2778 10.8707H38.7036C38.4788 10.8707 38.3663 10.9825 38.3663 11.206V24.8433C38.3663 25.0669 38.4788 25.1786 38.7036 25.1786H40.2778C40.5027 25.1786 40.6151 25.2904 40.6151 25.514C40.6151 25.7375 40.5027 25.8493 40.2778 25.8493H35.7802Z" fill="white"/>
<path d="M43.0273 25.1786H44.6015C44.8264 25.1786 44.9388 25.0669 44.9388 24.8433V11.206C44.9388 10.9825 44.8264 10.8707 44.6015 10.8707H43.0273C42.8025 10.8707 42.69 10.7589 42.69 10.5353C42.69 10.3118 42.8025 10.2 43.0273 10.2H45.501C45.7709 10.2 45.9582 10.3118 46.0632 10.5353L52.3599 24.3962C52.5098 24.6943 52.6596 24.6943 52.8097 24.3962L59.1064 10.5353C59.2112 10.3118 59.3987 10.2 59.6686 10.2H62.1423C62.3671 10.2 62.4796 10.3118 62.4796 10.5353C62.4796 10.7589 62.3671 10.8707 62.1423 10.8707H60.5681C60.3432 10.8707 60.2308 10.9825 60.2308 11.206V24.8433C60.2308 25.0669 60.3432 25.1786 60.5681 25.1786H62.1423C62.3671 25.1786 62.4796 25.2904 62.4796 25.514C62.4796 25.7375 62.3671 25.8493 62.1423 25.8493H57.8695C57.6446 25.8493 57.5322 25.7375 57.5322 25.514C57.5322 25.2904 57.6446 25.1786 57.8695 25.1786H59.2188C59.4437 25.1786 59.5561 25.0669 59.5561 24.8433V11.7649C59.5561 11.6159 59.5261 11.5563 59.4662 11.5861C59.4361 11.5861 59.4061 11.6084 59.3762 11.6532L53.0795 25.514C52.9595 25.7375 52.7946 25.8493 52.5848 25.8493C52.3748 25.8493 52.2099 25.7375 52.0901 25.514L45.7934 11.6532C45.7333 11.5637 45.6883 11.5414 45.6584 11.5861C45.6284 11.6308 45.6135 11.6904 45.6135 11.7649V24.8433C45.6135 25.0669 45.7259 25.1786 45.9508 25.1786H47.3001C47.525 25.1786 47.6374 25.2904 47.6374 25.514C47.6374 25.7375 47.525 25.8493 47.3001 25.8493H43.0273C42.8025 25.8493 42.69 25.7375 42.69 25.514C42.69 25.2904 42.8025 25.1786 43.0273 25.1786Z" fill="white"/>
<path d="M66.6385 23.8149C65.2592 22.2947 64.5696 20.3645 64.5696 18.0247C64.5696 15.6847 65.2592 13.7621 66.6385 12.2568C68.0176 10.7365 69.8392 9.97644 72.1031 9.97644C74.3669 9.97644 76.1884 10.7365 77.5677 12.2568C78.9469 13.7621 79.6366 15.6847 79.6366 18.0247C79.6366 20.3645 78.9469 22.2947 77.5677 23.8149C76.1884 25.3203 74.3669 26.0729 72.1031 26.0729C69.8392 26.0729 68.0176 25.3203 66.6385 23.8149ZM67.1332 12.7262C65.8739 14.1123 65.2442 15.8785 65.2442 18.0247C65.2442 20.1708 65.8739 21.937 67.1332 23.3231C68.3926 24.7091 70.0491 25.4022 72.1031 25.4022C74.1569 25.4022 75.8136 24.7091 77.073 23.3231C78.3323 21.937 78.962 20.1708 78.962 18.0247C78.962 15.8785 78.3323 14.1123 77.073 12.7262C75.8136 11.3402 74.1569 10.6471 72.1031 10.6471C70.0491 10.6471 68.3926 11.3402 67.1332 12.7262Z" fill="white"/>
<path d="M84.632 24.1726C85.8913 24.9923 87.2705 25.4022 88.7698 25.4022C90.2839 25.4022 91.4533 25.0744 92.2779 24.4185C93.1174 23.7478 93.5373 22.8835 93.5373 21.8252C93.5373 21.2439 93.3574 20.7373 92.9975 20.305C92.6377 19.8727 92.188 19.5374 91.6483 19.299C91.0485 19.0307 89.8866 18.6655 88.1626 18.2035C86.4384 17.7265 85.2465 17.3316 84.587 17.0186C83.9422 16.6907 83.4325 16.2809 83.0578 15.789C82.698 15.2972 82.5181 14.7308 82.5181 14.09C82.5181 12.838 82.9302 11.8395 83.7549 11.0942C84.5794 10.349 85.8913 9.97644 87.6904 9.97644C89.4743 9.97644 91.1159 10.6099 92.6153 11.8767C92.8551 12.0705 92.9751 11.9959 92.9751 11.6531V10.5353C92.9751 10.3118 93.0875 10.2 93.3124 10.2C93.5373 10.2 93.6497 10.3118 93.6497 10.5353V14.783C93.6497 15.0066 93.5373 15.1184 93.3124 15.1184C93.0875 15.1184 92.9751 15.0066 92.9751 14.783V13.2181C92.1504 12.2791 91.1235 11.5563 89.8942 11.0495C89.2345 10.7813 88.4999 10.6471 87.6904 10.6471C86.1612 10.6471 85.0292 10.9601 84.2946 11.5861C83.5599 12.2121 83.1927 12.9796 83.1927 13.8888C83.1927 14.47 83.3726 14.9768 83.7324 15.409C84.0923 15.8412 84.542 16.1766 85.0817 16.415C85.6814 16.6833 86.8432 17.0559 88.5674 17.5328C90.2914 17.9948 91.4757 18.3899 92.1205 18.7177C92.7801 19.0307 93.2899 19.4331 93.6497 19.9249C94.0245 20.4168 94.2119 21.0055 94.2119 21.6911C94.2119 23.0324 93.7397 24.098 92.7952 24.888C91.8507 25.678 90.4488 26.0729 88.5899 26.0729C86.7307 26.0729 85.0517 25.4394 83.5525 24.1726C83.3125 23.9789 83.1927 24.0533 83.1927 24.3962V25.514C83.1927 25.7375 83.0803 25.8493 82.8554 25.8493C82.6305 25.8493 82.5181 25.7375 82.5181 25.514V21.2663C82.5181 21.0427 82.6305 20.931 82.8554 20.931C83.0803 20.931 83.1927 21.0427 83.1927 21.2663V22.943C83.5975 23.405 84.0771 23.8149 84.632 24.1726Z" fill="white"/>
<path d="M109.066 11.206C109.066 10.9825 108.954 10.8707 108.729 10.8707H107.379C107.155 10.8707 107.042 10.7589 107.042 10.5353C107.042 10.3118 107.155 10.2 107.379 10.2H111.652C111.877 10.2 111.989 10.3118 111.989 10.5353C111.989 10.7589 111.877 10.8707 111.652 10.8707H110.078C109.853 10.8707 109.741 10.9825 109.741 11.206V24.8433C109.741 25.0669 109.853 25.1786 110.078 25.1786H111.652C111.877 25.1786 111.989 25.2904 111.989 25.514C111.989 25.7375 111.877 25.8493 111.652 25.8493H107.379C107.155 25.8493 107.042 25.7375 107.042 25.514C107.042 25.2904 107.155 25.1786 107.379 25.1786H108.729C108.954 25.1786 109.066 25.0669 109.066 24.8433V18.5836C109.066 18.36 108.954 18.2482 108.729 18.2482H99.7334C99.5086 18.2482 99.3961 18.36 99.3961 18.5836V24.8433C99.3961 25.0669 99.5086 25.1786 99.7334 25.1786H101.083C101.308 25.1786 101.42 25.2904 101.42 25.514C101.42 25.7375 101.308 25.8493 101.083 25.8493H96.81C96.5851 25.8493 96.4727 25.7375 96.4727 25.514C96.4727 25.2904 96.5851 25.1786 96.81 25.1786H98.3841C98.609 25.1786 98.7215 25.0669 98.7215 24.8433V11.206C98.7215 10.9825 98.609 10.8707 98.3841 10.8707H96.81C96.5851 10.8707 96.4727 10.7589 96.4727 10.5353C96.4727 10.3118 96.5851 10.2 96.81 10.2H101.083C101.308 10.2 101.42 10.3118 101.42 10.5353C101.42 10.7589 101.308 10.8707 101.083 10.8707H99.7334C99.5086 10.8707 99.3961 10.9825 99.3961 11.206V17.2422C99.3961 17.4658 99.5086 17.5775 99.7334 17.5775H108.729C108.954 17.5775 109.066 17.4658 109.066 17.2422V11.206Z" fill="white"/>
<path d="M114.401 25.8493C114.176 25.8493 114.063 25.7375 114.063 25.514C114.063 25.2904 114.176 25.1786 114.401 25.1786H115.975C116.2 25.1786 116.312 25.0669 116.312 24.8433V11.206C116.312 10.9825 116.2 10.8707 115.975 10.8707H114.401C114.176 10.8707 114.063 10.7589 114.063 10.5353C114.063 10.3118 114.176 10.2 114.401 10.2H125.083C125.308 10.2 125.42 10.3118 125.42 10.5353V13.6652C125.42 13.8888 125.308 14.0005 125.083 14.0005C124.858 14.0005 124.745 13.8888 124.745 13.6652V11.206C124.745 10.9825 124.633 10.8707 124.408 10.8707H117.324C117.099 10.8707 116.987 10.9825 116.987 11.206V17.2422C116.987 17.4658 117.099 17.5775 117.324 17.5775H122.384C122.609 17.5775 122.721 17.4658 122.721 17.2422V16.1244C122.721 15.9008 122.834 15.789 123.059 15.789C123.284 15.789 123.396 15.9008 123.396 16.1244V19.7014C123.396 19.9249 123.284 20.0367 123.059 20.0367C122.834 20.0367 122.721 19.9249 122.721 19.7014V18.5836C122.721 18.36 122.609 18.2482 122.384 18.2482H117.324C117.099 18.2482 116.987 18.36 116.987 18.5836V24.8433C116.987 25.0669 117.099 25.1786 117.324 25.1786H124.633C124.858 25.1786 124.97 25.0669 124.97 24.8433V22.3841C124.97 22.1605 125.083 22.0488 125.308 22.0488C125.532 22.0488 125.645 22.1605 125.645 22.3841V25.514C125.645 25.7375 125.532 25.8493 125.308 25.8493H114.401Z" fill="white"/>
<path d="M128.214 25.1786H129.788C130.013 25.1786 130.126 25.0669 130.126 24.8433V11.206C130.126 10.9825 130.013 10.8707 129.788 10.8707H128.214C127.989 10.8707 127.877 10.7589 127.877 10.5353C127.877 10.3118 127.989 10.2 128.214 10.2H130.688C130.928 10.2 131.115 10.3118 131.25 10.5353L140.47 24.5079C140.5 24.5675 140.545 24.5974 140.605 24.5974C140.665 24.5825 140.695 24.5155 140.695 24.3962V11.206C140.695 10.9825 140.583 10.8707 140.358 10.8707H139.009C138.784 10.8707 138.671 10.7589 138.671 10.5353C138.671 10.3118 138.784 10.2 139.009 10.2H143.281C143.506 10.2 143.619 10.3118 143.619 10.5353C143.619 10.7589 143.506 10.8707 143.281 10.8707H141.707C141.482 10.8707 141.37 10.9825 141.37 11.206V24.8433C141.37 25.0669 141.482 25.1786 141.707 25.1786H143.281C143.506 25.1786 143.619 25.2904 143.619 25.514C143.619 25.7375 143.506 25.8493 143.281 25.8493H140.808C140.568 25.8493 140.38 25.7375 140.245 25.514L131.025 11.5414C130.995 11.4818 130.95 11.4594 130.89 11.4743C130.83 11.4743 130.8 11.5339 130.8 11.6532V24.8433C130.8 25.0669 130.913 25.1786 131.138 25.1786H132.487C132.712 25.1786 132.824 25.2904 132.824 25.514C132.824 25.7375 132.712 25.8493 132.487 25.8493H128.214C127.989 25.8493 127.877 25.7375 127.877 25.514C127.877 25.2904 127.989 25.1786 128.214 25.1786Z" fill="white"/>
<path d="M145.871 25.1786H147.445C147.67 25.1786 147.783 25.0669 147.783 24.8433V11.206C147.783 10.9825 147.67 10.8707 147.445 10.8707H145.871C145.646 10.8707 145.534 10.7589 145.534 10.5353C145.534 10.3118 145.646 10.2 145.871 10.2H150.144C150.369 10.2 150.481 10.3118 150.481 10.5353C150.481 10.7589 150.369 10.8707 150.144 10.8707H148.794C148.57 10.8707 148.457 10.9825 148.457 11.206V19.4778L156.103 11.206C156.193 11.1315 156.223 11.057 156.193 10.9825C156.178 10.9079 156.11 10.8707 155.991 10.8707H154.529C154.304 10.8707 154.192 10.7589 154.192 10.5353C154.192 10.3118 154.304 10.2 154.529 10.2H159.139C159.364 10.2 159.476 10.3118 159.476 10.5353C159.476 10.7589 159.364 10.8707 159.139 10.8707H157.7C157.535 10.8707 157.34 10.9825 157.115 11.206L151.92 16.8174L157.79 24.8433C157.985 25.0669 158.172 25.1786 158.352 25.1786H159.814C160.039 25.1786 160.151 25.2904 160.151 25.514C160.151 25.7375 160.039 25.8493 159.814 25.8493H155.316C155.091 25.8493 154.979 25.7375 154.979 25.514C154.979 25.2904 155.091 25.1786 155.316 25.1786H156.778C157.048 25.1786 157.085 25.0669 156.89 24.8433L151.426 17.354L148.457 20.5733V24.8433C148.457 25.0669 148.57 25.1786 148.794 25.1786H150.144C150.369 25.1786 150.481 25.2904 150.481 25.514C150.481 25.7375 150.369 25.8493 150.144 25.8493H145.871C145.646 25.8493 145.534 25.7375 145.534 25.514C145.534 25.2904 145.646 25.1786 145.871 25.1786Z" fill="white"/>
<path d="M162.52 23.8149C161.141 22.2947 160.452 20.3645 160.452 18.0247C160.452 15.6847 161.141 13.7621 162.52 12.2568C163.9 10.7365 165.721 9.97644 167.985 9.97644C170.249 9.97644 172.07 10.7365 173.45 12.2568C174.829 13.7621 175.519 15.6847 175.519 18.0247C175.519 20.3645 174.829 22.2947 173.45 23.8149C172.07 25.3203 170.249 26.0729 167.985 26.0729C165.721 26.0729 163.9 25.3203 162.52 23.8149ZM163.015 12.7262C161.756 14.1123 161.126 15.8785 161.126 18.0247C161.126 20.1708 161.756 21.937 163.015 23.3231C164.275 24.7091 165.931 25.4022 167.985 25.4022C170.039 25.4022 171.696 24.7091 172.955 23.3231C174.214 21.937 174.844 20.1708 174.844 18.0247C174.844 15.8785 174.214 14.1123 172.955 12.7262C171.696 11.3402 170.039 10.6471 167.985 10.6471C165.931 10.6471 164.275 11.3402 163.015 12.7262Z" fill="white"/>
<path d="M131.191 30.7397H174.937V44.7123H127.853L131.191 30.7397Z" fill="white"/>
<path d="M140.041 40.717C140.605 40.717 141.132 40.586 141.622 40.3241V38.7085H140.129C140.026 38.7085 139.939 38.6721 139.865 38.5993C139.8 38.5265 139.767 38.4392 139.767 38.3373C139.767 38.2355 139.803 38.1482 139.876 38.0753C139.95 38.0025 140.034 37.9662 140.129 37.9662H141.908C142.025 37.9662 142.124 38.0098 142.204 38.0972C142.292 38.1772 142.336 38.2792 142.336 38.4028V40.4224C142.336 40.5534 142.303 40.6697 142.237 40.7717C142.179 40.8662 142.098 40.9354 141.996 40.979C141.322 41.3138 140.638 41.4812 139.942 41.4812C138.998 41.4812 138.237 41.1828 137.658 40.586C137.08 39.9892 136.787 39.2214 136.78 38.2828C136.78 37.3367 137.084 36.5544 137.691 35.9358C138.27 35.3537 139.009 35.0625 139.909 35.0625C140.422 35.0625 140.854 35.1243 141.205 35.248C141.556 35.3718 141.871 35.5246 142.149 35.7066C142.266 35.772 142.325 35.8666 142.325 35.9903C142.325 36.1141 142.292 36.2123 142.226 36.2851C142.168 36.3579 142.091 36.3943 141.996 36.3943C141.9 36.3943 141.824 36.3798 141.765 36.3506C141.187 36.0158 140.597 35.8485 139.997 35.8485C139.302 35.8485 138.731 36.0594 138.284 36.4816C137.823 36.9256 137.596 37.5259 137.603 38.2828C137.603 38.9886 137.816 39.5673 138.24 40.0184C138.687 40.4842 139.287 40.717 140.041 40.717Z" fill="black"/>
<path d="M148.727 41.0337C148.727 41.1427 148.686 41.2373 148.606 41.3173C148.533 41.3975 148.434 41.4375 148.309 41.4375C148.192 41.4375 148.093 41.4012 148.013 41.3283C147.94 41.2555 147.903 41.1573 147.903 41.0337V40.7607C147.903 40.2804 147.848 39.9274 147.738 39.7017C147.636 39.4763 147.489 39.2979 147.299 39.1669C147.116 39.0286 146.853 38.9595 146.509 38.9595H144.653V41.0337C144.653 41.1427 144.613 41.2373 144.532 41.3173C144.452 41.3975 144.353 41.4375 144.236 41.4375C144.126 41.4375 144.031 41.3975 143.95 41.3173C143.87 41.2373 143.829 41.1427 143.829 41.0337V35.5646C143.829 35.4555 143.87 35.3608 143.95 35.2808C144.031 35.1935 144.126 35.1498 144.236 35.1498H146.333C147.153 35.1498 147.775 35.3245 148.2 35.6738C148.595 36.0013 148.789 36.4306 148.782 36.9619C148.782 37.3039 148.683 37.6279 148.485 37.9335C148.295 38.2318 147.998 38.4465 147.596 38.5775C148.028 38.6866 148.342 38.9996 148.54 39.5163C148.672 39.8511 148.734 40.2222 148.727 40.6297V41.0337ZM146.278 38.1845C146.783 38.1845 147.189 38.0898 147.497 37.9007C147.804 37.7042 147.958 37.413 147.958 37.0274C147.958 36.6707 147.837 36.4016 147.596 36.2196C147.31 36.0158 146.856 35.914 146.234 35.914H144.653V38.1845H146.278Z" fill="black"/>
<path d="M150.736 35.9576C151.307 35.3608 152.068 35.0625 153.02 35.0625C153.972 35.0625 154.733 35.3608 155.304 35.9576C155.86 36.5471 156.149 37.3186 156.171 38.2718C156.149 39.218 155.86 39.9892 155.304 40.586C154.733 41.1828 153.972 41.4812 153.02 41.4812C152.068 41.4812 151.307 41.1828 150.736 40.586C150.165 39.9892 149.872 39.218 149.858 38.2718C149.872 37.3257 150.165 36.5544 150.736 35.9576ZM153.02 40.717C153.752 40.717 154.327 40.4842 154.744 40.0184C155.154 39.5673 155.359 38.985 155.359 38.2718C155.359 37.5587 155.154 36.9764 154.744 36.5253C154.319 36.0523 153.745 35.8193 153.02 35.8266C152.288 35.8266 151.71 36.0594 151.285 36.5253C150.875 36.9764 150.674 37.5587 150.681 38.2718C150.681 38.985 150.883 39.5673 151.285 40.0184C151.71 40.4842 152.288 40.717 153.02 40.717Z" fill="black"/>
<path d="M162.233 35.1062C162.343 35.1062 162.438 35.1462 162.518 35.2263C162.606 35.3063 162.65 35.4045 162.65 35.521V39.0578C162.65 39.8364 162.368 40.4477 161.805 40.8917C161.321 41.2847 160.739 41.4812 160.059 41.4812C159.37 41.4812 158.788 41.2847 158.313 40.8917C157.756 40.4406 157.478 39.8293 157.478 39.0578V35.521C157.478 35.4118 157.518 35.3172 157.599 35.2372C157.679 35.1498 157.775 35.1062 157.884 35.1062C157.994 35.1062 158.089 35.1462 158.17 35.2263C158.258 35.3063 158.302 35.4045 158.302 35.521V39.0796C158.302 39.6109 158.485 40.0257 158.851 40.3241C159.187 40.6005 159.59 40.7389 160.059 40.7389C160.534 40.7389 160.941 40.6005 161.277 40.3241C161.643 40.0184 161.827 39.6036 161.827 39.0796V35.521C161.827 35.4118 161.867 35.3172 161.947 35.2372C162.028 35.1498 162.123 35.1062 162.233 35.1062Z" fill="black"/>
<path d="M166.79 35.1498C167.624 35.1498 168.25 35.3645 168.667 35.794C169.011 36.1359 169.187 36.5834 169.194 37.1366C169.194 37.6824 169.019 38.1298 168.667 38.4791C168.243 38.9086 167.617 39.1233 166.79 39.1233H165.154V41.0337C165.154 41.1427 165.113 41.2373 165.033 41.3173C164.952 41.3975 164.853 41.4375 164.736 41.4375C164.626 41.4375 164.531 41.3975 164.451 41.3173C164.37 41.2373 164.33 41.1427 164.33 41.0337V35.5646C164.33 35.4555 164.37 35.3608 164.451 35.2808C164.531 35.1935 164.626 35.1498 164.736 35.1498H166.79ZM166.713 38.3592C167.328 38.3592 167.774 38.2282 168.052 37.9662C168.272 37.7624 168.378 37.4859 168.371 37.1366C168.371 36.5834 168.093 36.2159 167.536 36.0339C167.317 35.9613 167.042 35.9213 166.713 35.914H165.154V38.3592H166.713Z" fill="black"/>
<path d="M11.3023 10.023L7.79567 26.4238" stroke="white" stroke-linecap="round"/>
</svg>
